<svg xmlns="http://www.w3.org/2000/svg" height="175.948" width="873.663"><path d="M87.797 0c-44.9 0-42.096 19.471-42.096 19.471l.05 20.173h42.847V45.7H28.732S0 42.442 0 87.747s25.078 43.698 25.078 43.698h14.966v-21.023s-.807-25.078 24.677-25.078h42.497s23.877.386 23.877-23.075V23.476S134.72 0 87.797 0zM64.171 13.565a7.701 7.701 0 0 1 7.708 7.708 7.701 7.701 0 0 1-7.708 7.709 7.701 7.701 0 0 1-7.709-7.709 7.701 7.701 0 0 1 7.709-7.708z" style="color:#000;display:inline;overflow:visible;visibility:visible;fill:#2a6db2;fill-opacity:1;fill-rule:nonzero;stroke:none;stroke-width:1;marker:none"/><path style="color:#000;display:inline;overflow:visible;visibility:visible;fill:#505050;fill-opacity:1;fill-rule:nonzero;stroke:none;stroke-width:1;marker:none" d="M89.072 175.948c44.9 0 42.097-19.471 42.097-19.471l-.05-20.173H88.27v-6.056h59.866s28.732 3.258 28.732-42.047-25.078-43.698-25.078-43.698h-14.966v21.023s.807 25.078-24.677 25.078H69.65s-23.877-.386-23.877 23.075v38.793s-3.625 23.476 43.298 23.476zm23.626-13.565a7.701 7.701 0 0 1-7.708-7.708 7.701 7.701 0 0 1 7.708-7.709 7.701 7.701 0 0 1 7.709 7.709 7.701 7.701 0 0 1-7.709 7.708z"/><path style="font-style:normal;font-variant:normal;font-weight:400;font-stretch:normal;font-size:102.68504333px;line-height:125%;font-family:Sans;-inkscape-font-specification:Sans;letter-spacing:0;word-spacing:0;fill:#505050;fill-opacity:1;stroke:none" d="M211.335 110.314h16.946v20.4h-16.946v-20.4m0-64.65h16.946v20.398h-16.946V45.663"/><path style="font-style:normal;font-variant:normal;font-weight:400;font-stretch:normal;font-size:102.68504333px;line-height:125%;font-family:Sans;-inkscape-font-specification:Sans;letter-spacing:0;word-spacing:0;fill:#2a6db2;fill-opacity:1;stroke:none" d="M385.53 56.031c3.695-6.639 7.575-9.86 12.715-13.019 5.14-3.159 11.727-4.416 18.687-4.416 9.37 0 16.598 3.293 21.684 9.878 5.087 6.532 7.63 15.848 7.63 27.949v54.29h-14.858V76.904c0-8.62-1.526-15.018-4.578-19.194-3.051-4.176-7.71-6.264-13.974-6.264-7.656 0-13.706 2.543-18.15 7.63-4.444 5.086-6.666 12.02-6.666 20.8v50.837h-14.858V76.904c0-8.673-1.525-15.071-4.577-19.194-3.052-4.176-7.764-6.264-14.135-6.264-7.55 0-13.546 2.57-17.99 7.71-4.444 5.086-6.666 11.993-6.666 20.72v50.837h-14.857V40.764h14.857V52.74c3.373-5.515 6.879-8.014 11.59-10.637 4.712-2.624 10.844-3.506 17.322-3.506 6.532 0 12.074 1.66 16.625 4.98 4.604 3.319 8.004 6.138 10.2 12.455m127.694 83.033c-4.176 10.709-8.245 17.696-12.207 20.962-3.962 3.266-9.262 4.899-15.901 4.899H473.31v-12.368h8.673c4.07 0 7.228-.964 9.477-2.891 2.249-1.928 4.738-6.479 7.47-13.653l2.65-6.747-36.382-88.503h15.661l28.109 70.353 28.109-70.353h15.66l-39.513 98.301"/><path style="font-style:normal;font-variant:normal;font-weight:400;font-stretch:normal;font-size:102.68504333px;line-height:125%;font-family:Sans;-inkscape-font-specification:Sans;letter-spacing:0;word-spacing:0;fill:#505050;fill-opacity:1;stroke:none" d="M571.772 5.749h34.053v11.484H586.55v123.68h19.275v11.484h-34.053V5.75"/><path style="font-style:normal;font-variant:normal;font-weight:400;font-stretch:normal;font-size:102.68504333px;line-height:125%;font-family:Sans;-inkscape-font-specification:Sans;letter-spacing:0;word-spacing:0;fill:#2a6db2;fill-opacity:1;stroke:none" d="M651.682 117.22v47.706h-14.857V40.764h14.857v13.653c3.106-5.354 7.014-9.316 11.726-11.886 4.765-2.623 10.44-3.935 17.026-3.935 10.922 0 19.783 4.337 26.583 13.01 6.853 8.674 10.28 20.078 10.28 34.213 0 14.135-3.427 25.539-10.28 34.213-6.8 8.673-15.661 13.01-26.583 13.01-6.586 0-12.261-1.285-17.026-3.855-4.712-2.623-8.62-6.612-11.726-11.966m45.53-56.941c-4.445-6.21-10.575-9.316-18.392-9.316s-13.974 3.105-18.472 9.316c-4.444 6.157-6.666 14.67-6.666 25.539 0 10.869 2.222 19.409 6.666 25.62 4.498 6.157 10.655 9.235 18.472 9.235 7.817 0 13.947-3.078 18.391-9.236 4.497-6.21 6.746-14.75 6.746-25.619s-2.249-19.382-6.746-25.539zm82.005 78.785c-4.177 10.709-8.246 17.696-12.208 20.962-3.962 3.266-9.262 4.899-15.901 4.899h-11.806v-12.368h8.674c4.069 0 7.228-.964 9.476-2.891 2.249-1.928 4.739-6.479 7.47-13.653l2.65-6.747-36.382-88.503h15.661l28.11 70.353 28.108-70.353h15.66l-39.512 98.301"/><path style="font-style:normal;font-variant:normal;font-weight:400;font-stretch:normal;font-size:102.68504333px;line-height:125%;font-family:Sans;-inkscape-font-specification:Sans;letter-spacing:0;word-spacing:0;fill:#505050;fill-opacity:1;stroke:none" d="M873.663 5.749v146.648H839.61v-11.484h19.194V17.233H839.61V5.75h34.052"/></svg>
