<svg xmlns="http://www.w3.org/2000/svg" width="873.663" height="175.948"><path d="M87.797 0c-44.9 0-42.096 19.472-42.096 19.472l.05 20.172h42.847V45.7H28.732S0 42.442 0 87.747s25.078 43.698 25.078 43.698h14.966v-21.023s-.807-25.078 24.677-25.078h42.497s23.877.386 23.877-23.075V23.476S134.72 0 87.797 0M64.171 13.565a7.7 7.7 0 0 1 7.708 7.708 7.7 7.7 0 0 1-7.708 7.709 7.7 7.7 0 0 1-7.709-7.709 7.7 7.7 0 0 1 7.709-7.708" style="color:#000;display:inline;overflow:visible;visibility:visible;fill:#2a6db2;fill-opacity:1;fill-rule:nonzero;stroke:none;stroke-width:1;marker:none"/><path d="M89.072 175.948c44.9 0 42.097-19.471 42.097-19.471l-.05-20.173H88.27v-6.056h59.866s28.732 3.258 28.732-42.047-25.078-43.698-25.078-43.698h-14.966v21.023s.807 25.078-24.677 25.078H69.65s-23.877-.386-23.877 23.075v38.793s-3.625 23.476 43.298 23.476m23.626-13.565a7.7 7.7 0 0 1-7.708-7.708 7.7 7.7 0 0 1 7.708-7.709 7.7 7.7 0 0 1 7.709 7.709 7.7 7.7 0 0 1-7.709 7.708" style="color:#000;display:inline;overflow:visible;visibility:visible;fill:#505050;fill-opacity:1;fill-rule:nonzero;stroke:none;stroke-width:1;marker:none"/><path d="M211.335 110.314h16.946v20.4h-16.946zm0-64.65h16.946v20.398h-16.946z" style="font-style:normal;font-variant:normal;font-weight:400;font-stretch:normal;font-size:102.68504333px;line-height:125%;font-family:Sans;-inkscape-font-specification:Sans;letter-spacing:0;word-spacing:0;fill:#505050;fill-opacity:1;stroke:none"/><path d="M385.53 56.031c3.695-6.639 7.575-9.86 12.715-13.019s11.727-4.416 18.687-4.416q14.055 0 21.684 9.878 7.63 9.798 7.63 27.949v54.29h-14.858V76.904q0-12.93-4.578-19.194-4.577-6.264-13.974-6.264-11.484 0-18.15 7.63t-6.666 20.8v50.837h-14.858V76.904q0-13.01-4.577-19.194-4.578-6.264-14.135-6.264-11.324 0-17.99 7.71-6.666 7.63-6.666 20.72v50.837h-14.857V40.764h14.857V52.74c3.373-5.515 6.879-8.014 11.59-10.637s10.844-3.506 17.322-3.506q9.798 0 16.625 4.98c4.604 3.319 8.004 6.138 10.2 12.455M513.225 139.065q-6.264 16.063-12.207 20.962t-15.901 4.899H473.31v-12.368h8.673q6.104 0 9.477-2.891t7.47-13.653l2.65-6.747-36.382-88.503h15.661l28.109 70.353 28.109-70.353h15.66z" style="font-style:normal;font-variant:normal;font-weight:400;font-stretch:normal;font-size:102.68504333px;line-height:125%;font-family:Sans;-inkscape-font-specification:Sans;letter-spacing:0;word-spacing:0;fill:#2a6db2;fill-opacity:1;stroke:none"/><path d="M571.772 5.749h34.053v11.484H586.55v123.68h19.275v11.484h-34.053z" style="font-style:normal;font-variant:normal;font-weight:400;font-stretch:normal;font-size:102.68504333px;line-height:125%;font-family:Sans;-inkscape-font-specification:Sans;letter-spacing:0;word-spacing:0;fill:#505050;fill-opacity:1;stroke:none"/><path d="M651.682 117.22v47.706h-14.857V40.764h14.857v13.653q4.659-8.031 11.726-11.886 7.147-3.935 17.026-3.935 16.383 0 26.583 13.01 10.28 13.01 10.28 34.213 0 21.202-10.28 34.213-10.2 13.01-26.583 13.01-9.879 0-17.026-3.855-7.067-3.935-11.726-11.966m45.53-56.941q-6.667-9.315-18.392-9.316-11.725 0-18.472 9.316-6.666 9.235-6.666 25.539t6.666 25.62q6.747 9.235 18.472 9.235t18.391-9.236q6.746-9.315 6.746-25.619 0-16.303-6.746-25.539M779.217 139.065q-6.265 16.063-12.208 20.962t-15.901 4.899h-11.806v-12.368h8.674q6.104 0 9.476-2.891 3.374-2.892 7.47-13.653l2.65-6.747-36.382-88.503h15.661l28.11 70.353 28.108-70.353h15.66z" style="font-style:normal;font-variant:normal;font-weight:400;font-stretch:normal;font-size:102.68504333px;line-height:125%;font-family:Sans;-inkscape-font-specification:Sans;letter-spacing:0;word-spacing:0;fill:#2a6db2;fill-opacity:1;stroke:none"/><path d="M873.663 5.749v146.648H839.61v-11.484h19.194V17.233h-19.194V5.75z" style="font-style:normal;font-variant:normal;font-weight:400;font-stretch:normal;font-size:102.68504333px;line-height:125%;font-family:Sans;-inkscape-font-specification:Sans;letter-spacing:0;word-spacing:0;fill:#505050;fill-opacity:1;stroke:none"/></svg>
